<?xml version="1.0" encoding="utf-8"?>
<svg version="1.0" xmlns="http://www.w3.org/2000/svg" width="430.000000pt" height="150.000000pt" viewBox="0 0 430.000000 150.000000" preserveAspectRatio="xMidYMid meet" xmlns:bx="https://boxy-svg.com">
  <defs>
    <bx:export>
      <bx:file format="svg" href="#object-0" units="pt"/>
      <bx:file format="svg" href="#object-1" path="PrimeHud.svg" units="pt"/>
    </bx:export>
  </defs>
  <g transform="matrix(0.1, 0, 0, -0.1, -1.000001, 150)" fill="#3100e4" stroke="none">
    <g id="object-1">
      <path style="stroke-opacity: 0; stroke: rgb(255, 121, 26); fill: rgba(0, 0, 0, 0.49);" d="M 541.203 1365.36 L 550.203 945.089 L 642.033 853.094 L 613.223 634.849 L 550.203 528.431 C 550.203 528.431 544.803 84.728 544.803 81.121 C 544.803 77.516 1441.53 63.081 1441.53 63.081 L 1596.4 178.515 L 2700.21 174.908 L 2811.84 84.728 L 3692.38 54.066 L 3773.4 151.459 C 3773.4 151.459 3744.59 293.948 3744.59 295.761 C 3744.59 297.574 3757.19 465.305 3757.19 472.517 C 3757.19 479.729 3672.57 622.228 3672.57 627.637 C 3672.57 633.046 3658.15 838.67 3658.15 840.473 C 3658.15 842.277 3749.99 937.867 3749.99 939.67 C 3749.99 941.472 3751.8 1412.24 3751.8 1412.24 L 2804.65 1388.8 L 2658.78 1314.84 L 1574.78 1298.62 C 1574.78 1298.62 1486.55 1415.86 1488.36 1414.05 C 1490.16 1412.24 570.003 1405.04 570.003 1405.04 L 541.203 1365.36 Z" id="object-0"/>
      <path d="M490 1197 l0 -253 50 -49 50 -49 0 -101 0 -101 -50 -49 -50 -49 0 -253 0 -253 503 0 503 0 49 50 49 50 556 0 556 0 49 -50 49 -50 503 0 503 0 0 253 0 253 -50 49 -50 49 0 101 0 101 50 49 50 49 0 253 0 253 -503 0 -503 0 -49 -50 -49 -50 -556 0 -556 0 -49 50 -49 50 -503 0 -503 0 0 -253z m1025 133 l49 -50 586 0 586 0 49 50 49 50 448 0 448 0 0 -213 0 -213 -45 -44 -45 -44 0 -121 0 -121 45 -44 45 -44 0 -213 0 -213 -448 0 -448 0 -49 50 -49 50 -586 0 -586 0 -49 -50 -49 -50 -448 0 -448 0 0 213 0 213 45 44 45 44 0 121 0 121 -45 44 -45 44 0 213 0 213 448 0 448 0 49 -50z" style="stroke-linejoin: bevel; stroke-dashoffset: 1px; fill-rule: nonzero; stroke-width: 500px; fill: rgb(255, 121, 26);"/>
    </g>
  </g>
</svg>
