<?xml version="1.0" standalone="no"?>
<!DOCTYPE svg PUBLIC "-//W3C//DTD SVG 20010904//EN"
 "http://www.w3.org/TR/2001/REC-SVG-20010904/DTD/svg10.dtd">
<svg version="1.0" xmlns="http://www.w3.org/2000/svg"
 width="430.000000pt" height="150.000000pt" viewBox="0 0 430.000000 150.000000"
 preserveAspectRatio="xMidYMid meet">
<g transform="translate(0.000000,150.000000) scale(0.100000,-0.100000)"
fill="#000000" stroke="none">
<path d="M490 1197 l0 -253 50 -49 50 -49 0 -101 0 -101 -50 -49 -50 -49 0
-253 0 -253 503 0 503 0 49 50 49 50 556 0 556 0 49 -50 49 -50 503 0 503 0 0
253 0 253 -50 49 -50 49 0 101 0 101 50 49 50 49 0 253 0 253 -503 0 -503 0
-49 -50 -49 -50 -556 0 -556 0 -49 50 -49 50 -503 0 -503 0 0 -253z m1025 133
l49 -50 586 0 586 0 49 50 49 50 448 0 448 0 0 -213 0 -213 -45 -44 -45 -44 0
-121 0 -121 45 -44 45 -44 0 -213 0 -213 -448 0 -448 0 -49 50 -49 50 -586 0
-586 0 -49 -50 -49 -50 -448 0 -448 0 0 213 0 213 45 44 45 44 0 121 0 121
-45 44 -45 44 0 213 0 213 448 0 448 0 49 -50z"/>
</g>
</svg>
